<?xml version="1.0" standalone="no"?>
<svg xmlns="http://www.w3.org/2000/svg" viewBox="0 0 148.682 36" width="148.682" height="36"><g fill="#7963A8" color="#7963A8" transform="translate(0 6) scale(0.4705883)"><svg width="44.0" height="51.0" x="0.0" y="0.0" viewBox="0 0 44 51"><path fill="currentColor" fill-rule="evenodd" d="M21.986 0L44 12.704v25.393L22.029 50.801.014 38.111 0 12.718 21.986 0zM22 7.428L6.43 16.425V34.42l15.599 8.996 15.555-9.01-.014-17.994L22 7.428zm-.001 5.403l10.907 6.302v12.561l-10.907 6.302-10.893-6.288-.015-12.575L22 12.83z"></path></svg></g><path fill="#264E86" fill-rule="nonzero" d="M18.12 0.17Q19.01 0.17 20.16 0.12L20.16 0.12Q20.16 0.70 19.99 1.20L19.99 1.20Q19.44 1.34 19.09 1.84Q18.74 2.33 18.24 3.74L18.24 3.74L15.19 12.19Q14.81 12.34 14.18 12.34L14.18 12.34Q13.34 10.34 11.54 6.86L11.54 6.86L10.03 3.82L6.53 12.22Q6.19 12.34 5.50 12.34L5.50 12.34Q4.15 8.76 1.80 3.41L1.80 3.41Q1.32 2.30 1.12 1.92Q0.91 1.54 0.71 1.40Q0.50 1.27 0.12 1.22L0.12 1.22Q0 0.79 0 0.12L0 0.12Q1.34 0.17 2.50 0.17L2.50 0.17Q3.58 0.17 5.16 0.12L5.16 0.12Q5.16 0.72 5.06 1.20L5.06 1.20Q4.32 1.25 4.01 1.40Q3.70 1.56 3.70 1.90L3.70 1.90Q3.70 2.26 4.10 3.14L4.10 3.14Q4.46 3.94 5.02 5.06L5.02 5.06Q6.12 7.34 6.60 8.50L6.60 8.50L10.13 0.14Q10.44 0.02 11.14 0.02L11.14 0.02Q11.62 1.03 12.62 3.05L12.62 3.05Q14.45 6.70 15.26 8.52L15.26 8.52L17.18 3.72Q17.52 2.78 17.52 2.30L17.52 2.30Q17.52 1.80 17.20 1.55Q16.87 1.30 16.18 1.20L16.18 1.20Q16.01 0.72 16.01 0.12L16.01 0.12Q17.21 0.17 18.12 0.17L18.12 0.17ZM29.30 12.38Q27.24 12.38 25.66 11.62Q24.07 10.85 23.20 9.46Q22.32 8.06 22.32 6.22L22.32 6.22Q22.32 4.39 23.20 2.98Q24.07 1.56 25.67 0.78Q27.26 0 29.35 0L29.35 0Q31.42 0 33 0.77Q34.58 1.54 35.46 2.94Q36.34 4.34 36.34 6.17L36.34 6.17Q36.34 8.02 35.46 9.42Q34.58 10.82 32.99 11.60Q31.39 12.38 29.30 12.38L29.30 12.38ZM29.64 11.28Q31.58 11.28 32.72 9.98Q33.86 8.69 33.86 6.53L33.86 6.53Q33.86 4.97 33.24 3.73Q32.62 2.50 31.50 1.80Q30.38 1.10 28.99 1.10L28.99 1.10Q27.05 1.10 25.92 2.41Q24.79 3.72 24.79 5.86L24.79 5.86Q24.79 7.46 25.42 8.70Q26.04 9.94 27.14 10.61Q28.25 11.28 29.64 11.28L29.64 11.28ZM49.32 9.36Q49.97 10.32 50.65 10.72Q51.34 11.11 52.34 11.16L52.34 11.16Q52.34 11.86 52.25 12.17L52.25 12.17Q50.21 12.17 48.79 12.34L48.79 12.34Q48.62 12.05 48.14 11.33L48.14 11.33L47.06 9.58Q46.18 8.09 44.71 7.15L44.71 7.15L43.94 7.18L43.25 7.15L43.25 9.34Q43.25 10.13 43.37 10.51Q43.49 10.90 43.76 11.04Q44.04 11.18 44.62 11.21L44.62 11.21Q44.71 11.50 44.71 12.22L44.71 12.22Q43.82 12.17 42.10 12.17L42.10 12.17Q40.82 12.17 39.48 12.22L39.48 12.22Q39.48 11.54 39.60 11.21L39.60 11.21Q40.20 11.16 40.50 11.02Q40.80 10.87 40.92 10.51Q41.04 10.15 41.04 9.43L41.04 9.43L41.04 2.93Q41.04 1.90 40.75 1.56Q40.46 1.22 39.60 1.18L39.60 1.18Q39.48 0.82 39.48 0.12L39.48 0.12Q40.39 0.17 42.12 0.17L42.12 0.17L43.85 0.14Q45.10 0.10 45.74 0.10L45.74 0.10Q48.05 0.10 49.22 0.98Q50.40 1.87 50.40 3.26L50.40 3.26Q50.40 4.66 49.51 5.56Q48.62 6.46 47.04 6.77L47.04 6.77Q47.64 7.13 48.04 7.60Q48.43 8.06 49.32 9.36L49.32 9.36ZM44.16 5.98Q45.89 5.98 46.99 5.36Q48.10 4.75 48.10 3.58L48.10 3.58Q48.10 1.13 44.74 1.13L44.74 1.13Q43.97 1.13 43.25 1.27L43.25 1.27L43.25 5.90Q43.75 5.98 44.16 5.98L44.16 5.98ZM55.27 12.22Q55.27 11.47 55.39 11.14L55.39 11.14Q55.97 11.09 56.28 10.94Q56.59 10.80 56.72 10.42Q56.86 10.03 56.86 9.26L56.86 9.26L56.86 2.95Q56.86 2.26 56.72 1.90Q56.59 1.54 56.29 1.39Q55.99 1.25 55.39 1.20L55.39 1.20Q55.30 0.82 55.30 0.12L55.30 0.12Q56.64 0.17 58.39 0.17L58.39 0.17Q59.18 0.17 59.59 0.14L59.59 0.14L60.86 0.12Q64.34 0.12 66.59 1.34Q68.83 2.57 68.83 5.86L68.83 5.86Q68.83 9.60 66.29 10.88Q63.74 12.17 60.84 12.17L60.84 12.17Q57.38 12.17 55.27 12.22L55.27 12.22ZM60.94 11.09Q62.66 11.09 63.85 10.69Q65.04 10.30 65.75 9.22Q66.46 8.14 66.46 6.17L66.46 6.17Q66.46 3.50 64.79 2.33Q63.12 1.15 60.55 1.15L60.55 1.15Q59.57 1.15 59.06 1.30L59.06 1.30L59.06 9.22Q59.06 9.98 59.21 10.38Q59.35 10.78 59.75 10.93Q60.14 11.09 60.94 11.09L60.94 11.09ZM75.36 9.86Q75.36 11.69 75.06 12.85Q74.76 14.02 73.84 14.93Q72.91 15.84 71.11 16.58L71.11 16.58Q70.78 16.32 70.70 15.70L70.70 15.70Q72.00 14.88 72.58 13.93Q73.15 12.98 73.15 11.30L73.15 11.30L73.15 2.98Q73.15 2.26 73.02 1.90Q72.89 1.54 72.59 1.39Q72.29 1.25 71.69 1.20L71.69 1.20Q71.59 0.82 71.59 0.12L71.59 0.12Q72.84 0.17 74.26 0.17L74.26 0.17Q75.82 0.17 76.92 0.12L76.92 0.12Q76.92 0.82 76.80 1.20L76.80 1.20Q75.96 1.25 75.66 1.62Q75.36 1.99 75.36 2.98L75.36 2.98L75.36 9.86ZM86.69 12.38Q84.62 12.38 83.04 11.62Q81.46 10.85 80.58 9.46Q79.70 8.06 79.70 6.22L79.70 6.22Q79.70 4.39 80.58 2.98Q81.46 1.56 83.05 0.78Q84.65 0 86.74 0L86.74 0Q88.80 0 90.38 0.77Q91.97 1.54 92.84 2.94Q93.72 4.34 93.72 6.17L93.72 6.17Q93.72 8.02 92.84 9.42Q91.97 10.82 90.37 11.60Q88.78 12.38 86.69 12.38L86.69 12.38ZM87.02 11.28Q88.97 11.28 90.11 9.98Q91.25 8.69 91.25 6.53L91.25 6.53Q91.25 4.97 90.62 3.73Q90.00 2.50 88.88 1.80Q87.77 1.10 86.38 1.10L86.38 1.10Q84.43 1.10 83.30 2.41Q82.18 3.72 82.18 5.86L82.18 5.86Q82.18 7.46 82.80 8.70Q83.42 9.94 84.53 10.61Q85.63 11.28 87.02 11.28L87.02 11.28ZM102.67 11.09Q103.80 11.09 104.46 10.86Q105.12 10.63 105.52 10.14Q105.91 9.65 106.27 8.76L106.27 8.76Q106.92 8.88 107.33 9.29L107.33 9.29Q106.90 10.42 106.68 12.19L106.68 12.19L102.43 12.17Q98.98 12.17 96.86 12.22L96.86 12.22Q96.86 11.47 96.98 11.14L96.98 11.14Q97.56 11.09 97.87 10.94Q98.18 10.80 98.32 10.42Q98.45 10.03 98.45 9.26L98.45 9.26L98.45 2.95Q98.45 2.26 98.32 1.90Q98.18 1.54 97.88 1.39Q97.58 1.25 96.98 1.20L96.98 1.20Q96.89 0.82 96.89 0.12L96.89 0.12Q98.62 0.17 99.55 0.17L99.55 0.17Q100.54 0.17 102.22 0.12L102.22 0.12Q102.22 0.84 102.10 1.20L102.10 1.20Q101.26 1.25 100.96 1.60Q100.66 1.94 100.66 2.98L100.66 2.98L100.66 9.22Q100.66 9.98 100.80 10.38Q100.94 10.78 101.34 10.93Q101.74 11.09 102.53 11.09L102.53 11.09L102.67 11.09ZM119.81 0.12Q119.74 1.42 119.98 3.24L119.98 3.24Q119.47 3.46 118.80 3.46L118.80 3.46Q118.75 2.30 118.19 1.75Q117.62 1.20 116.42 1.20L116.42 1.20L115.37 1.20L115.37 9.43Q115.37 10.18 115.50 10.52Q115.63 10.87 115.98 11.02Q116.33 11.16 117.05 11.21L117.05 11.21Q117.17 11.50 117.17 12.22L117.17 12.22Q115.39 12.17 114.26 12.17L114.26 12.17Q112.87 12.17 111.29 12.22L111.29 12.22Q111.29 11.50 111.41 11.21L111.41 11.21Q112.13 11.16 112.50 11.02Q112.87 10.87 113.02 10.51Q113.16 10.15 113.16 9.43L113.16 9.43L113.16 1.20L112.18 1.20Q111.22 1.20 110.70 1.45Q110.18 1.70 109.94 2.16Q109.70 2.62 109.54 3.46L109.54 3.46Q108.77 3.46 108.41 3.24L108.41 3.24Q108.77 1.61 108.77 0.12L108.77 0.12Q110.02 0.17 114.26 0.17L114.26 0.17Q118.58 0.17 119.81 0.12L119.81 0.12Z" transform="translate(28.706, 11.916)"></path></svg>